<?xml version="1.0" encoding="utf-8"?>
<!-- Generator: Adobe Illustrator 24.2.0, SVG Export Plug-In . SVG Version: 6.00 Build 0)  -->
<svg version="1.1" id="Layer_5" xmlns="http://www.w3.org/2000/svg" xmlns:xlink="http://www.w3.org/1999/xlink" x="0px" y="0px"
	 viewBox="0 0 50 50" style="enable-background:new 0 0 50 50;" xml:space="preserve">
<style type="text/css">
	.st0{opacity:0.6;fill:#AECDFF;enable-background:new    ;}
	.st1{fill:none;stroke:#888888;stroke-width:1.3;stroke-linejoin:round;stroke-miterlimit:10;}
	.st2{fill:none;stroke:#888888;stroke-width:1.3;stroke-linecap:round;stroke-linejoin:round;stroke-miterlimit:10;}
	.st3{fill:none;stroke:#888888;stroke-linejoin:round;stroke-miterlimit:10;}
</style>
<path id="color_1_" class="st0" d="M38.1,15.1l0.5,2.1c0.1,0.4,0.4,0.8,0.8,1l2,0.7c1.1,0.4,1.2,1.9,0.3,2.5L40,22.6
	c-0.4,0.3-0.6,0.7-0.6,1.1L39.3,26c0,1.2-1.3,1.8-2.2,1.1l-1.7-1.4c-0.3-0.3-0.8-0.4-1.2-0.3L32.1,26c-1.1,0.3-2-0.8-1.6-1.8
	l0.8-2.1c0.2-0.4,0.1-0.9-0.1-1.3L29.9,19c-0.6-1,0.1-2.3,1.2-2.2l2.1,0.1c0.5,0,0.9-0.2,1.2-0.5l1.3-1.8
	C36.4,13.7,37.8,14,38.1,15.1z"/>
<ellipse id="color" transform="matrix(5.379751e-02 -0.9986 0.9986 5.379751e-02 -2.5972 36.5933)" class="st0" cx="18" cy="19.7" rx="6.6" ry="5.5"/>
<ellipse transform="matrix(1 -2.217058e-03 2.217058e-03 1 -4.339467e-02 3.399137e-02)" class="st1" cx="15.3" cy="19.6" rx="5.5" ry="6.6"/>
<path class="st1" d="M16.4,26.3l-1.7,2.3c-0.2,0.3,0,0.8,0.4,0.8l3-0.2c0.5,0,0.7-0.6,0.4-0.9L16.4,26.3z"/>
<path class="st2" d="M18.5,40.5c1.2-2,1.2-3.1,1-4c-0.3-1.5-1.9-2.3-2.5-4c-0.5-1.6-0.5-2.1-0.2-3.2"/>
<path class="st1" d="M32.5,25.5l1.8,2.2c0.3,0.3,0,0.8-0.4,0.8h-3c-0.5,0-0.8-0.5-0.4-0.9L32.5,25.5z"/>
<path class="st2" d="M31.5,40.5c-1.4-1.9-2-3-1-5s1.4-2,1.8-3.7c0.4-1.6,0.3-2.1,0-3.2"/>
<path class="st1" d="M35.1,13.1l0.8,2.2c0.2,0.5,0.6,0.8,1,0.9l2.3,0.5c1.2,0.3,1.5,1.9,0.6,2.7L38,21c-0.4,0.3-0.6,0.8-0.5,1.3
	l0.2,2.4c0.1,1.3-1.2,2.1-2.3,1.4l-2-1.3c-0.4-0.3-0.9-0.3-1.4-0.1l-2.1,0.9c-1.1,0.5-2.3-0.6-2-1.8l0.6-2.3c0.1-0.5,0-1-0.3-1.4
	l-1.5-1.8c-0.8-1-0.2-2.4,1-2.5l2.3-0.1c0.5,0,0.9-0.3,1.2-0.7l1.2-2.1C33.1,11.8,34.7,11.9,35.1,13.1z"/>
<path class="st3" d="M23.6,9.5c0,0-0.5,2.4-2.1,2.6c0,0,1.8,0.3,1.8,2.9c0,0,0.3-2.9,2.1-2.9C25.4,12.1,23.6,12.1,23.6,9.5z"/>
<path class="st3" d="M43,23.6c0,0-0.8,1.7-2,1.6c0,0,1.3,0.5,0.9,2.5c0,0,0.7-2.1,2.1-1.8C44,25.9,42.6,25.5,43,23.6z"/>
<path class="st3" d="M9.3,27.5c0,0-0.3,2-1.8,2.4c0,0,1.9,0,2.1,2.1c0,0-0.1-2.4,1.8-2.6C11.4,29.4,9.6,29.6,9.3,27.5z"/>
<path class="st3" d="M25.5,29.2c0,0-0.1,2.1-1.5,2.5c0,0,1.6,0,2,2.3c0,0-0.1-2.5,1.4-2.8C27.4,31.2,25.8,31.4,25.5,29.2z"/>
</svg>
