<?xml version="1.0" encoding="utf-8"?>
<!-- Generator: Adobe Illustrator 24.2.0, SVG Export Plug-In . SVG Version: 6.00 Build 0)  -->
<svg version="1.1" id="color" xmlns="http://www.w3.org/2000/svg" xmlns:xlink="http://www.w3.org/1999/xlink" x="0px" y="0px"
	 viewBox="0 0 50 50" style="enable-background:new 0 0 50 50;" xml:space="preserve">
<style type="text/css">
	.st0{opacity:0.6;fill:#AECDFF;enable-background:new    ;}
	.st1{fill:none;stroke:#888888;stroke-width:1.3;stroke-linejoin:round;stroke-miterlimit:10;}
	.st2{fill:none;stroke:#888888;stroke-width:1.3;stroke-linecap:round;stroke-linejoin:round;stroke-miterlimit:10;}
</style>
<path class="st0" d="M22,24.2v4.5c0,1,0.6,1.9,1.6,2.3l9.8,5.5c1.1,0.6,2.5-0.2,2.5-1.5V17.1c0-0.8-0.8-1.3-1.5-1l-11.1,6.1
	C22.5,22.6,22,23.3,22,24.2z"/>
<path class="st1" d="M18.7,27h-4.4c-0.7,0-1.3-0.6-1.3-1.3v-4.4c0-0.7,0.6-1.3,1.3-1.3h4.4c0.7,0,1.3,0.6,1.3,1.3v4.4
	C20,26.4,19.4,27,18.7,27z"/>
<path class="st1" d="M17.8,38h-2.7c-0.1,0-0.2-0.1-0.2-0.2V27.2c0-0.1,0.1-0.2,0.2-0.2h2.7c0.1,0,0.2,0.1,0.2,0.2v10.7
	C18,37.9,17.9,38,17.8,38z"/>
<path class="st1" d="M20,21.4v3.5c0,0.8,0.5,1.5,1.2,1.8l7.8,4.3c0.9,0.5,2-0.2,2-1.2v-14c0-0.6-0.6-1-1.2-0.8L21,19.8
	C20.4,20.1,20,20.7,20,21.4z"/>
<line class="st2" x1="34" y1="19" x2="39" y2="16"/>
<line class="st2" x1="34" y1="23" x2="39" y2="23"/>
<line class="st2" x1="34" y1="27" x2="39" y2="30"/>
<rect x="18" y="29" class="st1" width="3" height="3"/>
<rect x="10.5" y="21.5" class="st1" width="2" height="4"/>
</svg>
