<?xml version="1.0" encoding="utf-8"?>
<!-- Generator: Adobe Illustrator 24.2.0, SVG Export Plug-In . SVG Version: 6.00 Build 0)  -->
<svg version="1.1" id="Layer_3" xmlns="http://www.w3.org/2000/svg" xmlns:xlink="http://www.w3.org/1999/xlink" x="0px" y="0px"
	 viewBox="0 0 50 50" style="enable-background:new 0 0 50 50;" xml:space="preserve">
<style type="text/css">
	.st0{opacity:0.6;fill:#AECDFF;enable-background:new    ;}
	.st1{fill:none;stroke:#888888;stroke-width:1.3;stroke-linecap:round;stroke-linejoin:round;stroke-miterlimit:10;}
	.st2{fill:none;stroke:#888888;stroke-width:1.3;stroke-linejoin:round;stroke-miterlimit:10;}
</style>
<path id="color" class="st0" d="M36.8,37.1l-0.1-19.3c0-1.5-1.5-2.8-3.4-2.7l-14.9,0.1c-1.9,0-2.4,1.3-2.4,2.8l0,4.1l0,6.9l0,8.3
	c0,1.5,0.5,2.8,2.4,2.8l14.9-0.1C35.3,39.9,36.8,38.7,36.8,37.1z"/>
<g id="line">
	<line class="st1" x1="17.2" y1="21.3" x2="28.9" y2="21.3"/>
	<line class="st1" x1="17.2" y1="31.3" x2="28.9" y2="31.3"/>
	<line class="st1" x1="17.2" y1="26.3" x2="31" y2="26.3"/>
	<line class="st1" x1="17.2" y1="16.3" x2="31" y2="16.3"/>
</g>
<path class="st2" d="M34.9,21h2.5c1.2,0,2.2,1,2.2,2.2v11.3c0,1.2-1,2.2-2.2,2.2h-3.5"/>
<path class="st2" d="M35,32.9V13.2c0-1.2-1-2.2-2.2-2.2H25h-9.8C14,11,13,12,13,13.2v21.3c0,1.2,1,2.2,2.2,2.2H25h10.8"/>
<path class="st2" d="M35,13.2v21.3c0,1.2,1,2.2,2.2,2.2H37"/>
</svg>
