<?xml version="1.0" encoding="utf-8"?>
<!-- Generator: Adobe Illustrator 24.2.0, SVG Export Plug-In . SVG Version: 6.00 Build 0)  -->
<svg version="1.1" id="Layer_2_1_" xmlns="http://www.w3.org/2000/svg" xmlns:xlink="http://www.w3.org/1999/xlink" x="0px" y="0px"
	 viewBox="0 0 50 50" style="enable-background:new 0 0 50 50;" xml:space="preserve">
<style type="text/css">
	.st0{opacity:0.6;fill:#AECDFF;enable-background:new    ;}
	.st1{display:none;fill:none;stroke:#CCCCCC;stroke-width:2;stroke-miterlimit:10;}
	.st2{fill:none;stroke:#888888;stroke-width:1.3;stroke-linejoin:round;stroke-miterlimit:10;}
	.st3{fill:none;stroke:#888888;stroke-width:1.3;stroke-linecap:round;stroke-linejoin:round;stroke-miterlimit:10;}
</style>
<path id="color" class="st0" d="M37.9,16.3H18.2c-1.7,0-3.1,1.4-3.1,3.1v13.5c0,1.7,1.4,2.2,3.1,2.2h4.6h7.7h7.2
	c1.8,0,3.3-1.5,3.3-3.3V19.3C41,17.6,39.6,16.3,37.9,16.3z"/>
<circle class="st1" cx="25" cy="25" r="23.5"/>
<path id="text" class="st2" d="M34.8,32.4h-8.1l-2,4.9c0,0.7-0.8,1-1.3,0.5l-5.1-5.4h-4c-1.9,0-3.4-0.5-3.4-2.4V15.4
	c0-1.9,1.5-3.4,3.3-3.4h20.4c1.8,0,3.3,1.5,3.3,3.4V30C38.2,31.9,36.7,32.4,34.8,32.4z"/>
<g id="line">
	<line class="st3" x1="16" y1="22" x2="30.3" y2="22"/>
	<line class="st3" x1="16" y1="27" x2="33" y2="27"/>
	<line class="st3" x1="16" y1="17" x2="33" y2="17"/>
</g>
</svg>
